<?xml version="1.0" encoding="UTF-8" standalone="no"?>
<!-- Created with Inkscape (http://www.inkscape.org/) -->

<svg
   xmlns:dc="http://purl.org/dc/elements/1.1/"
   xmlns:cc="http://creativecommons.org/ns#"
   xmlns:rdf="http://www.w3.org/1999/02/22-rdf-syntax-ns#"
   xmlns:svg="http://www.w3.org/2000/svg"
   xmlns="http://www.w3.org/2000/svg"
   version="1.1"
   width="182.30875"
   height="180.44138"
   id="svg4998">
  <defs
     id="defs5000">
    <clipPath
       id="clipPath566">
      <path
         d="m 417.304,517.578 c 0,-39.979 32.406,-72.388 72.384,-72.388 l 0,0 c 39.979,0 72.387,32.409 72.387,72.388 l 0,0 c 0,39.977 -32.408,72.386 -72.387,72.386 l 0,0 c -39.978,0 -72.384,-32.409 -72.384,-72.386"
         id="path568" />
    </clipPath>
    <clipPath
       id="clipPath590">
      <path
         d="m 481.522,505.357 16.334,0 0,-19.3 -16.334,0 0,19.3 z"
         id="path592" />
    </clipPath>
    <clipPath
       id="clipPath358">
      <path
         d="m 481.647,670.656 16.334,0 0,-19.301 -16.334,0 0,19.301 z"
         id="path360" />
    </clipPath>
  </defs>
  <metadata
     id="metadata5003">
    <rdf:RDF>
      <cc:Work
         rdf:about="">
        <dc:format>image/svg+xml</dc:format>
        <dc:type
           rdf:resource="http://purl.org/dc/dcmitype/StillImage" />
        <dc:title></dc:title>
      </cc:Work>
    </rdf:RDF>
  </metadata>
  <g
     transform="translate(-231.74955,-466.70263)"
     id="layer1">
    <g
       transform="matrix(1.25,0,0,-1.25,-289.37462,1410.2555)"
       id="g330">
      <g
         id="g332">
        <g
           transform="translate(519.4492,692.542)"
           id="g338">
          <path
             d="M 0,0 C 0,16.473 -13.268,29.828 -29.635,29.828 -46.002,29.828 -59.27,16.473 -59.27,0 c 0,-16.473 13.268,-29.828 29.635,-29.828 C -13.268,-29.828 0,-16.473 0,0"
             id="path340"
             style="fill:#10303f;fill-opacity:1;fill-rule:nonzero;stroke:none" />
        </g>
        <g
           transform="translate(524.4805,638.3223)"
           id="g342">
          <path
             d="m 0,0 c -4.666,8.833 -34.666,14.376 -34.666,14.376 0,0 -30,-5.543 -34.666,-14.376 -3.449,-12.258 -6.334,-27.833 -6.334,-27.833 l 41,0 41,0 c 0,0 -1.948,16.7 -6.334,27.833"
             id="path344"
             style="fill:#f1c9a5;fill-opacity:1;fill-rule:nonzero;stroke:none" />
        </g>
        <g
           transform="translate(489.8145,652.6982)"
           id="g346">
          <path
             d="M 0,0 C 0,0 30,-5.543 34.666,-14.376 39.052,-25.509 41,-42.209 41,-42.209 l -41,0 L 0,0 z"
             id="path348"
             style="fill:#e4b692;fill-opacity:1;fill-rule:nonzero;stroke:none" />
        </g>
        <path
           d="m 497.981,670.656 -16.334,0 0,-27.336 16.334,0 0,27.336 z"
           id="path350"
           style="fill:#f1c9a5;fill-opacity:1;fill-rule:nonzero;stroke:none" />
        <path
           d="m 497.981,670.656 -8.167,0 0,-27.336 8.167,0 0,27.336 z"
           id="path352"
           style="fill:#e4b692;fill-opacity:1;fill-rule:nonzero;stroke:none" />
        <g
           id="g354">
          <g
             id="g356" />
          <g
             id="g362">
            <g
               clip-path="url(#clipPath358)"
               id="g364"
               style="opacity:0.10000598">
              <g
                 transform="translate(481.6475,657.9893)"
                 id="g366">
                <path
                   d="m 0,0 c 1.469,-4.217 7.397,-6.634 11.751,-6.634 1.575,0 3.107,0.264 4.583,0.747 l 0,18.554 L 0,12.667 0,0 z"
                   id="path368"
                   style="fill:#ddac8c;fill-opacity:1;fill-rule:nonzero;stroke:none" />
              </g>
            </g>
          </g>
        </g>
        <g
           transform="translate(510.8145,687.9053)"
           id="g370">
          <path
             d="m 0,0 c 0,17.074 -9.402,26.783 -21,26.783 -11.598,0 -21,-9.709 -21,-26.783 0,-17.074 9.402,-30.917 21,-30.917 11.598,0 21,13.843 21,30.917"
             id="path372"
             style="fill:#f1c9a5;fill-opacity:1;fill-rule:nonzero;stroke:none" />
        </g>
        <g
           transform="translate(508.3682,676.0654)"
           id="g374">
          <path
             d="m 0,0 c -3.807,0.392 -6.377,4.429 -5.732,9.012 0.636,4.586 4.242,7.991 8.05,7.6 C 6.123,16.222 8.689,12.188 8.047,7.601 7.408,3.015 3.807,-0.388 0,0"
             id="path376"
             style="fill:#e4b692;fill-opacity:1;fill-rule:nonzero;stroke:none" />
        </g>
        <g
           transform="translate(463.4043,683.666)"
           id="g378">
          <path
             d="m 0,0 c -0.643,4.587 1.924,8.621 5.727,9.012 3.81,0.39 7.416,-3.015 8.054,-7.601 0.643,-4.583 -1.929,-8.62 -5.734,-9.012 C 4.24,-7.988 0.639,-4.586 0,0"
             id="path380"
             style="fill:#f1c9a5;fill-opacity:1;fill-rule:nonzero;stroke:none" />
        </g>
        <g
           transform="translate(510.8145,687.9053)"
           id="g382">
          <path
             d="m 0,0 c 0,17.074 -9.402,26.783 -21,26.783 l 0,-57.7 c 11.598,0 21,13.843 21,30.917"
             id="path384"
             style="fill:#e4b692;fill-opacity:1;fill-rule:nonzero;stroke:none" />
        </g>
        <g
           transform="translate(491.0215,719.9141)"
           id="g386">
          <path
             d="m 0,0 c -12.551,0 -23.932,-13.977 -23.932,-27.222 0,-0.05 0.003,-0.099 0.003,-0.15 l 11.853,0 1.122,8.839 0,-8.839 12,0 0,8.839 2.104,-8.839 7.615,0 0,7.339 1.826,-7.339 8.924,0 c 0,0.051 0.003,0.1 0.003,0.15 C 21.518,-13.977 12.551,0 0,0"
             id="path388"
             style="fill:#10303f;fill-opacity:1;fill-rule:nonzero;stroke:none" />
        </g>
        <g
           transform="translate(503.9814,710.7773)"
           id="g390">
          <path
             d="m 0,0 c 0,0 11.167,24.501 27.167,11.667 16,-12.834 -11.418,-52.364 12.916,-49.864 -8.666,-9.167 -20.416,-4.137 -21.416,16.03 -1,20.167 -10.109,13 -10.109,13"
             id="path392"
             style="fill:#10303f;fill-opacity:1;fill-rule:nonzero;stroke:none" />
        </g>
        <g
           transform="translate(475.9199,710.7773)"
           id="g394">
          <path
             d="m 0,0 c 0,0 -11.167,24.501 -27.167,11.667 -16,-12.834 10.896,-51.614 -13.438,-49.114 8.666,-9.167 20.938,-4.887 21.938,15.28 1,20.167 10.109,13 10.109,13"
             id="path396"
             style="fill:#10303f;fill-opacity:1;fill-rule:nonzero;stroke:none" />
        </g>
        <g
           transform="translate(489.1133,710.3789)"
           id="g398">
          <path
             d="m 0,0 c 10.84,0 19.845,-6.258 21.678,-14.495 0.223,1.006 0.346,2.04 0.346,3.097 0,9.714 -9.86,17.591 -22.024,17.591 -12.163,0 -22.023,-7.877 -22.023,-17.591 0,-1.057 0.123,-2.091 0.347,-3.097 C -19.844,-6.258 -10.84,0 0,0"
             id="path400"
             style="fill:#fae43e;fill-opacity:1;fill-rule:nonzero;stroke:none" />
        </g>
        <g
           transform="translate(524.4805,638.3223)"
           id="g402">
          <path
             d="M 0,0 C -1.232,2.333 -4.235,4.434 -7.982,6.266 -13.854,5.181 -23.612,4.47 -34.666,4.47 -45.72,4.47 -55.479,5.181 -61.35,6.266 -65.097,4.434 -68.1,2.333 -69.332,0 c -3.449,-12.258 -6.334,-27.833 -6.334,-27.833 l 41,0 41,0 c 0,0 -1.948,16.7 -6.334,27.833"
             id="path404"
             style="fill:#b3b10a;fill-opacity:1;fill-rule:nonzero;stroke:none" />
        </g>
      </g>
    </g>
  </g>
</svg>
