<?xml version="1.0" encoding="UTF-8" standalone="no"?>
<!-- Created with Inkscape (http://www.inkscape.org/) -->

<svg
   xmlns:dc="http://purl.org/dc/elements/1.1/"
   xmlns:cc="http://creativecommons.org/ns#"
   xmlns:rdf="http://www.w3.org/1999/02/22-rdf-syntax-ns#"
   xmlns:svg="http://www.w3.org/2000/svg"
   xmlns="http://www.w3.org/2000/svg"
   version="1.1"
   width="180.96375"
   height="180.9675"
   id="svg4492">
  <defs
     id="defs4494">
    <clipPath
       id="clipPath1198">
      <path
         d="m 481.522,174.76 16.334,0 0,-19.301 -16.334,0 0,19.301 z"
         id="path1200" />
    </clipPath>
  </defs>
  <metadata
     id="metadata4497">
    <rdf:RDF>
      <cc:Work
         rdf:about="">
        <dc:format>image/svg+xml</dc:format>
        <dc:type
           rdf:resource="http://purl.org/dc/dcmitype/StillImage" />
        <dc:title></dc:title>
      </cc:Work>
    </rdf:RDF>
  </metadata>
  <g
     transform="translate(-352.37527,-370.44986)"
     id="layer1">
    <g
       transform="matrix(1.25,0,0,-1.25,-169.25498,694.65799)"
       id="g1174">
      <g
         id="g1176">
        <g
           transform="translate(524.3555,142.4258)"
           id="g1182">
          <path
             d="m 0,0 c -4.666,8.833 -34.666,14.376 -34.666,14.376 0,0 -30,-5.543 -34.666,-14.376 -3.449,-12.258 -6.334,-27.833 -6.334,-27.833 l 41,0 41,0 c 0,0 -1.948,16.7 -6.334,27.833"
             id="path1184"
             style="fill:#f1c9a5;fill-opacity:1;fill-rule:nonzero;stroke:none" />
        </g>
        <g
           transform="translate(489.6895,156.8018)"
           id="g1186">
          <path
             d="M 0,0 C 0,0 30,-5.543 34.666,-14.376 39.052,-25.509 41,-42.209 41,-42.209 l -41,0 L 0,0 z"
             id="path1188"
             style="fill:#e4b692;fill-opacity:1;fill-rule:nonzero;stroke:none" />
        </g>
        <path
           d="m 497.856,174.76 -16.334,0 0,-27.336 16.334,0 0,27.336 z"
           id="path1190"
           style="fill:#f1c9a5;fill-opacity:1;fill-rule:nonzero;stroke:none" />
        <path
           d="m 497.856,174.76 -8.167,0 0,-27.336 8.167,0 0,27.336 z"
           id="path1192"
           style="fill:#e4b692;fill-opacity:1;fill-rule:nonzero;stroke:none" />
        <g
           id="g1194">
          <g
             id="g1196" />
          <g
             id="g1202">
            <g
               clip-path="url(#clipPath1198)"
               id="g1204"
               style="opacity:0.10000598">
              <g
                 transform="translate(481.5225,162.0928)"
                 id="g1206">
                <path
                   d="m 0,0 c 1.469,-4.217 7.397,-6.634 11.751,-6.634 1.575,0 3.107,0.264 4.583,0.747 l 0,18.554 L 0,12.667 0,0 z"
                   id="path1208"
                   style="fill:#ddac8c;fill-opacity:1;fill-rule:nonzero;stroke:none" />
              </g>
            </g>
          </g>
        </g>
        <g
           transform="translate(510.6895,192.0088)"
           id="g1210">
          <path
             d="m 0,0 c 0,17.074 -9.402,26.783 -21,26.783 -11.598,0 -21,-9.709 -21,-26.783 0,-22.966 9.402,-30.917 21,-30.917 11.598,0 21,8.908 21,30.917"
             id="path1212"
             style="fill:#f1c9a5;fill-opacity:1;fill-rule:nonzero;stroke:none" />
        </g>
        <g
           transform="translate(507.4932,180.1689)"
           id="g1214">
          <path
             d="m 0,0 c -3.807,0.398 -6.377,4.5 -5.732,9.156 0.636,4.66 4.242,8.12 8.05,7.724 C 6.123,16.483 8.689,12.384 8.047,7.724 7.408,3.063 3.807,-0.394 0,0"
             id="path1216"
             style="fill:#e4b692;fill-opacity:1;fill-rule:nonzero;stroke:none" />
        </g>
        <g
           transform="translate(463.9873,187.8926)"
           id="g1218">
          <path
             d="M 0,0 C -0.643,4.66 1.924,8.76 5.727,9.156 9.537,9.553 13.143,6.093 13.781,1.433 14.424,-3.224 11.852,-7.325 8.047,-7.724 4.24,-8.117 0.639,-4.66 0,0"
             id="path1220"
             style="fill:#f1c9a5;fill-opacity:1;fill-rule:nonzero;stroke:none" />
        </g>
        <g
           transform="translate(510.6895,192.0088)"
           id="g1222">
          <path
             d="m 0,0 c 0,17.074 -9.402,26.783 -21,26.783 l 0,-57.7 c 11.598,0 21,8.908 21,30.917"
             id="path1224"
             style="fill:#e4b692;fill-opacity:1;fill-rule:nonzero;stroke:none" />
        </g>
        <g
           transform="translate(524.3555,142.4258)"
           id="g1226">
          <path
             d="M 0,0 C -2.726,5.158 -14.082,9.191 -23.065,11.656 L -34.666,-27.833 -46.267,11.656 C -55.25,9.191 -66.606,5.158 -69.332,0 c -3.449,-12.258 -6.334,-27.833 -6.334,-27.833 l 41,0 41,0 c 0,0 -1.948,16.7 -6.334,27.833"
             id="path1228"
             style="fill:#0d313d;fill-opacity:1;fill-rule:nonzero;stroke:none" />
        </g>
        <g
           transform="translate(477.7158,154.082)"
           id="g1230">
          <path
             d="M 0,0 11.974,-39.489 23.619,0 11.974,-13.26 0,0 z"
             id="path1232"
             style="fill:#f1f2f2;fill-opacity:1;fill-rule:nonzero;stroke:none" />
        </g>
        <g
           transform="translate(489.6895,114.5928)"
           id="g1234">
          <path
             d="M 0,0 17.729,19.745 11.646,22.05 22.229,36.425 11.944,39.489 0,0 z"
             id="path1236"
             style="fill:#2b5770;fill-opacity:1;fill-rule:nonzero;stroke:none" />
        </g>
        <g
           transform="translate(489.6895,114.5928)"
           id="g1238">
          <path
             d="m 0,0 -17.729,19.745 6.083,2.305 -10.583,14.375 10.285,3.064 L 0,0 z"
             id="path1240"
             style="fill:#2b5770;fill-opacity:1;fill-rule:nonzero;stroke:none" />
        </g>
        <g
           transform="translate(474.6621,138.0342)"
           id="g1242">
          <path
             d="M 0,0 9.077,8.437 15.013,2.788 6.86,16.949 1.881,16.566 C 1.523,11.061 0,0 0,0"
             id="path1244"
             style="fill:#ffffff;fill-opacity:1;fill-rule:nonzero;stroke:none" />
        </g>
        <g
           transform="translate(504.6875,138.0342)"
           id="g1246">
          <path
             d="m 0,0 -9.077,8.437 -5.936,-5.649 8.153,14.161 4.979,-0.383 C -1.523,11.061 0,0 0,0"
             id="path1248"
             style="fill:#ffffff;fill-opacity:1;fill-rule:nonzero;stroke:none" />
        </g>
        <g
           transform="translate(512.7461,195.8584)"
           id="g1250">
          <path
             d="m 0,0 c 0,0 -3.744,2.825 -5.348,-5.467 0.521,7.792 0.142,18.541 -6.18,20.508 -3.513,-6.321 -17.418,-10.394 -26.549,-8.146 0.701,-7.166 -1.404,-13.067 -3.793,-14.611 0.14,5.76 0.138,9.274 -3.514,8.149 -0.982,12.08 5.634,27.392 23.474,27.392 C -4.07,27.825 1.827,15.734 0,0"
             id="path1252"
             style="fill:#262421;fill-opacity:1;fill-rule:nonzero;stroke:none" />
        </g>
      </g>
    </g>
  </g>
</svg>
