<?xml version="1.0" encoding="UTF-8" standalone="no"?>
<!-- Created with Inkscape (http://www.inkscape.org/) -->

<svg
   xmlns:dc="http://purl.org/dc/elements/1.1/"
   xmlns:cc="http://creativecommons.org/ns#"
   xmlns:rdf="http://www.w3.org/1999/02/22-rdf-syntax-ns#"
   xmlns:svg="http://www.w3.org/2000/svg"
   xmlns="http://www.w3.org/2000/svg"
   version="1.1"
   width="180.96375"
   height="180.9675"
   id="svg4830">
  <defs
     id="defs4832">
    <clipPath
       id="clipPath502">
      <path
         d="m 660.902,505.357 16.334,0 0,-19.3 -16.334,0 0,19.3 z"
         id="path504" />
    </clipPath>
  </defs>
  <metadata
     id="metadata4835">
    <rdf:RDF>
      <cc:Work
         rdf:about="">
        <dc:format>image/svg+xml</dc:format>
        <dc:type
           rdf:resource="http://purl.org/dc/dcmitype/StillImage" />
        <dc:title></dc:title>
      </cc:Work>
    </rdf:RDF>
  </metadata>
  <g
     transform="translate(-278.08955,-316.16415)"
     id="layer1">
    <g
       transform="matrix(1.25,0,0,-1.25,-467.76553,1053.6193)"
       id="g478">
      <g
         id="g480">
        <g
           transform="translate(703.7354,473.0234)"
           id="g486">
          <path
             d="m 0,0 c -4.666,8.833 -34.666,14.376 -34.666,14.376 0,0 -30,-5.543 -34.666,-14.376 -3.449,-12.258 -6.334,-27.833 -6.334,-27.833 l 41,0 41,0 c 0,0 -1.948,16.7 -6.334,27.833"
             id="path488"
             style="fill:#f1c9a5;fill-opacity:1;fill-rule:nonzero;stroke:none" />
        </g>
        <g
           transform="translate(669.0693,487.3994)"
           id="g490">
          <path
             d="M 0,0 C 0,0 30,-5.543 34.666,-14.376 39.052,-25.509 41,-42.209 41,-42.209 l -41,0 L 0,0 z"
             id="path492"
             style="fill:#e4b692;fill-opacity:1;fill-rule:nonzero;stroke:none" />
        </g>
        <path
           d="m 677.236,505.357 -16.334,0 0,-27.336 16.334,0 0,27.336 z"
           id="path494"
           style="fill:#f1c9a5;fill-opacity:1;fill-rule:nonzero;stroke:none" />
        <path
           d="m 677.236,505.357 -8.167,0 0,-27.336 8.167,0 0,27.336 z"
           id="path496"
           style="fill:#e4b692;fill-opacity:1;fill-rule:nonzero;stroke:none" />
        <g
           id="g498">
          <g
             id="g500" />
          <g
             id="g506">
            <g
               clip-path="url(#clipPath502)"
               id="g508"
               style="opacity:0.10000598">
              <g
                 transform="translate(660.9023,492.6904)"
                 id="g510">
                <path
                   d="m 0,0 c 1.469,-4.217 7.397,-6.634 11.751,-6.634 1.575,0 3.107,0.264 4.583,0.747 l 0,18.554 L 0,12.667 0,0 z"
                   id="path512"
                   style="fill:#ddac8c;fill-opacity:1;fill-rule:nonzero;stroke:none" />
              </g>
            </g>
          </g>
        </g>
        <g
           transform="translate(703.7354,473.0234)"
           id="g514">
          <path
             d="m 0,0 c -2.726,5.158 -14.082,9.191 -23.065,11.656 -0.352,-6.11 -5.403,-10.96 -11.601,-10.96 -6.198,0 -11.249,4.85 -11.601,10.96 C -55.25,9.191 -66.606,5.158 -69.332,0 c -3.449,-12.258 -6.334,-27.833 -6.334,-27.833 l 41,0 41,0 c 0,0 -1.948,16.7 -6.334,27.833"
             id="path516"
             style="fill:#ffffff;fill-opacity:1;fill-rule:nonzero;stroke:none" />
        </g>
        <g
           transform="translate(690.0693,522.6064)"
           id="g518">
          <path
             d="m 0,0 c 0,17.074 -9.402,26.783 -21,26.783 -11.598,0 -21,-9.709 -21,-26.783 0,-7.153 2.188,-22.991 5.924,-26.219 2.565,-2.279 10.938,-6.182 15.033,-6.182 l 10e-4,0 c 0.014,0 0.028,0.002 0.043,0.002 0.014,0 0.028,-0.002 0.041,-0.002 l 0.002,0 c 4.096,0 12.469,3.903 15.033,6.182 C -2.039,-22.116 0,-6.565 0,0"
             id="path520"
             style="fill:#f1c9a5;fill-opacity:1;fill-rule:nonzero;stroke:none" />
        </g>
        <g
           transform="translate(669.0703,490.207)"
           id="g522">
          <path
             d="m 0,0 c 0.014,0 0.028,-0.002 0.041,-0.002 l 0.002,0 c 4.096,0 12.469,3.903 15.033,6.183 3.884,4.102 5.923,19.653 5.923,26.218 0,17.075 -9.402,26.784 -21,26.784 L -0.001,0 0,0 z"
             id="path524"
             style="fill:#e4b692;fill-opacity:1;fill-rule:nonzero;stroke:none" />
        </g>
        <g
           transform="translate(686.873,510.7666)"
           id="g526">
          <path
             d="m 0,0 c -3.807,0.398 -6.377,4.5 -5.732,9.156 0.636,4.66 4.242,8.12 8.05,7.724 C 6.123,16.483 8.689,12.384 8.047,7.724 7.408,3.063 3.807,-0.394 0,0"
             id="path528"
             style="fill:#e4b692;fill-opacity:1;fill-rule:nonzero;stroke:none" />
        </g>
        <g
           transform="translate(643.3672,518.4902)"
           id="g530">
          <path
             d="M 0,0 C -0.643,4.66 1.924,8.76 5.727,9.156 9.537,9.553 13.143,6.093 13.781,1.433 14.424,-3.224 11.852,-7.325 8.047,-7.724 4.24,-8.117 0.639,-4.66 0,0"
             id="path532"
             style="fill:#f1c9a5;fill-opacity:1;fill-rule:nonzero;stroke:none" />
        </g>
        <g
           transform="translate(634.4033,473.0234)"
           id="g534">
          <path
             d="m 0,0 c -3.449,-12.258 -6.334,-27.833 -6.334,-27.833 l 29.777,0 C 18.39,-5.528 18.194,10.19 18.194,10.22 10.374,7.744 2.249,4.257 0,0"
             id="path536"
             style="fill:#fb6020;fill-opacity:1;fill-rule:nonzero;stroke:none" />
        </g>
        <g
           transform="translate(703.7354,473.0234)"
           id="g538">
          <path
             d="m 0,0 c 4.67,-11.533 6.334,-27.833 6.334,-27.833 l -29.777,0 c 5.053,22.305 5.249,38.023 5.249,38.053 C -10.374,7.744 -2.249,4.257 0,0"
             id="path540"
             style="fill:#fb6020;fill-opacity:1;fill-rule:nonzero;stroke:none" />
        </g>
        <g
           transform="translate(649.3545,511.2393)"
           id="g542">
          <path
             d="m 0,0 c 0,0 3.067,-10.331 6.388,-12.085 l 2.682,0 3.321,4.705 7.281,2.029 0,-15.683 -9.453,0 -9.452,8.488 L 0,0 z"
             id="path544"
             style="fill:#915f2c;fill-opacity:1;fill-rule:nonzero;stroke:none" />
        </g>
        <g
           transform="translate(688.7412,511.2393)"
           id="g546">
          <path
             d="m 0,0 c 0,0 -3.067,-10.331 -6.388,-12.085 l -2.682,0 -3.321,4.705 -7.281,2.029 0,-15.683 9.453,0 9.452,8.488 L 0,0 z"
             id="path548"
             style="fill:#915f2c;fill-opacity:1;fill-rule:nonzero;stroke:none" />
        </g>
        <g
           transform="translate(672.4375,500.7227)"
           id="g550">
          <path
             d="M 0,0 C 0,0 -0.5,2.226 -3.417,2.226 -6.084,2.226 -6.834,0 -6.834,0 L 0,0 z"
             id="path552"
             style="fill:#ffffff;fill-opacity:1;fill-rule:nonzero;stroke:none" />
        </g>
        <g
           transform="translate(648.1025,527.5977)"
           id="g554">
          <path
             d="m 0,0 c 0,0 2.783,-0.579 4.581,-2.669 -0.317,3.657 -1.019,15.805 3.42,18.853 4.439,3.046 6.517,-0.131 12.966,-0.131 l 0,8.882 -10.483,0 C 7.752,24.935 -0.917,23.629 -0.917,15.443 -0.917,7.258 0,0 0,0"
             id="path556"
             style="fill:#915f2c;fill-opacity:1;fill-rule:nonzero;stroke:none" />
        </g>
        <g
           transform="translate(690.0352,527.5977)"
           id="g558">
          <path
             d="m 0,0 c 0,0 -2.783,-0.579 -4.581,-2.669 0.317,3.657 1.019,15.805 -3.42,18.853 -4.439,3.046 -6.517,-0.131 -12.966,-0.131 l 0,8.882 10.483,0 c 2.732,0 11.401,-1.306 11.401,-9.492 C 0.917,7.258 0,0 0,0"
             id="path560"
             style="fill:#915f2c;fill-opacity:1;fill-rule:nonzero;stroke:none" />
        </g>
      </g>
    </g>
  </g>
</svg>
