<?xml version="1.0" encoding="UTF-8" standalone="no"?>
<!-- Created with Inkscape (http://www.inkscape.org/) -->

<svg
   xmlns:dc="http://purl.org/dc/elements/1.1/"
   xmlns:cc="http://creativecommons.org/ns#"
   xmlns:rdf="http://www.w3.org/1999/02/22-rdf-syntax-ns#"
   xmlns:svg="http://www.w3.org/2000/svg"
   xmlns="http://www.w3.org/2000/svg"
   version="1.1"
   width="24"
   height="24"
   viewBox="0 0 24 24"
   id="svg2">
  <defs
     id="defs8" />
  <path
     d="m 12,2 a 7,7 0 0 1 7,7 c 0,2.38 -1.19,4.47 -3,5.74 V 17 a 1,1 0 0 1 -1,1 H 9 A 1,1 0 0 1 8,17 V 14.74 C 6.19,13.47 5,11.38 5,9 A 7,7 0 0 1 12,2 M 9,21 v -1 h 6 v 1 a 1,1 0 0 1 -1,1 H 10 A 1,1 0 0 1 9,21 M 12,4 A 5,5 0 0 0 7,9 c 0,2.05 1.23,3.81 3,4.58 V 16 h 4 V 13.58 C 15.77,12.81 17,11.05 17,9 A 5,5 0 0 0 12,4 z"
     id="path4"
     style="fill:#ffffff" />
  <metadata
     id="metadata3008">
    <rdf:RDF>
      <cc:Work
         rdf:about="">
        <dc:title></dc:title>
      </cc:Work>
    </rdf:RDF>
  </metadata>
</svg>
